{
	"asset":{
		"version":"2.0",
		"generator":"Created using the official Cinema 4D glTF Exporter 1.000x284978"
	},
	"images":[{
		"uri":"data:image/jpeg;base64,"
	}],
	"scenes":[{
		"nodes":[0,
		1]
	}],
	"nodes":[{
		"name":"Icons",
		"translation":[35.135440826416019,
		25.05640411376953,
		92.73410034179688],
		"rotation":[0.0,
		0.0,
		0.0,
		-1.0],
		"scale":[1.0,
		1.0,
		1.0],
		"mesh":0
	},
	{
		"name":"English",
		"translation":[16.10823631286621,
		9.072909355163575,
		0.0],
		"rotation":[0.0,
		0.0,
		0.0,
		-1.0],
		"scale":[1.0,
		1.0,
		1.0],
		"mesh":1
	}],
	"bufferViews":[{
		"buffer":0,
		"byteOffset":0,
		"byteLength":3384,
		"target":34963
	},
	{
		"byteStride":32,
		"buffer":0,
		"byteOffset":3384,
		"byteLength":20416,
		"target":34962
	},
	{
		"buffer":1,
		"byteOffset":0,
		"byteLength":231480,
		"target":34963
	},
	{
		"byteStride":32,
		"buffer":1,
		"byteOffset":231480,
		"byteLength":651968,
		"target":34962
	}],
	"meshes":[{
		"name":"Icons",
		"primitives":[{
			"attributes":{
				"TEXCOORD_0":3,
				"POSITION":1,
				"NORMAL":2
			},
			"indices":0
		}]
	},
	{
		"name":"English",
		"primitives":[{
			"attributes":{
				"TEXCOORD_0":7,
				"POSITION":5,
				"NORMAL":6
			},
			"indices":4,
			"material":0
		}]
	}],
	"accessors":[{
		"bufferView":0,
		"type":"SCALAR",
		"componentType":5123,
		"count":1692,
		"byteOffset":0,
		"min":[0],
		"max":[637]
	},
	{
		"bufferView":1,
		"type":"VEC3",
		"componentType":5126,
		"count":638,
		"byteOffset":0,
		"min":[-48.335933685302737,
		-23.873414993286134,
		-36.403499603271487],
		"max":[45.85508728027344,
		22.279144287109376,
		28.000585556030275]
	},
	{
		"bufferView":1,
		"type":"VEC3",
		"componentType":5126,
		"count":638,
		"byteOffset":12,
		"min":[-0.9848039746284485,
		-1.0,
		-0.9657602906227112],
		"max":[0.9848033785820007,
		1.0,
		0.9848078489303589]
	},
	{
		"bufferView":1,
		"type":"VEC2",
		"componentType":5126,
		"count":638,
		"byteOffset":24,
		"min":[0.0,
		0.0],
		"max":[0.9602530002593994,
		0.9250019788742065]
	},
	{
		"bufferView":2,
		"type":"SCALAR",
		"componentType":5123,
		"count":115740,
		"byteOffset":0,
		"min":[0],
		"max":[20373]
	},
	{
		"bufferView":3,
		"type":"VEC3",
		"componentType":5126,
		"count":20374,
		"byteOffset":0,
		"min":[-82.8843002319336,
		-129.05569458007813,
		-55.205501556396487],
		"max":[78.96499633789063,
		126.01689910888672,
		117.37590026855469]
	},
	{
		"bufferView":3,
		"type":"VEC3",
		"componentType":5126,
		"count":20374,
		"byteOffset":12,
		"min":[-0.9999688267707825,
		-0.999750018119812,
		-0.9998750686645508],
		"max":[0.9999688267707825,
		0.9996563196182251,
		0.9999688267707825]
	},
	{
		"bufferView":3,
		"type":"VEC2",
		"componentType":5126,
		"count":20374,
		"byteOffset":24,
		"min":[0.0,
		0.0],
		"max":[0.9765470027923584,
		0.7363590002059937]
	}],
	"buffers":[{
		"uri":"data:application/octet-stream;base64,",
		"byteLength":23800
	},
	{
		"uri":"data:application/octet-stream;base64,",
		"byteLength":883448
	}],
	"textures":[{
		"sampler":0,
		"source":0
	}],
	"samplers":[{
		"magFilter":9729,
		"minFilter":9729,
		"wrapS":10497,
		"wrapT":10497
	}],
	"materials":[{
		"pbrMetallicRoughness":{
			"baseColorTexture":{
				"index":0
			},
			"baseColorFactor":[0.800000011920929,
			0.800000011920929,
			0.800000011920929,
			1.0],
			"metallicFactor":1.0,
			"roughnessFactor":1.0
		},
		"emissiveFactor":[0.0,
		0.0,
		0.0],
		"alphaMode":"OPAQUE",
		"doubleSided":false,
		"name":"kt_facebuilder_material"
	}]
}