{
	"asset":{
		"version":"2.0",
		"generator":"Created using the official Cinema 4D glTF Exporter 1.000x284978"
	},
	"images":[{
		"uri":"data:image/jpeg;base64,"
	}],
	"scenes":[{
		"nodes":[0,
		1]
	}],
	"nodes":[{
		"name":"Icons",
		"translation":[15.20009994506836,
		17.187097549438478,
		78.41883850097656],
		"rotation":[0.0,
		0.0,
		0.0,
		-1.0],
		"scale":[1.0,
		1.0,
		1.0],
		"mesh":0
	},
	{
		"name":"English",
		"translation":[0.0,
		0.0,
		0.0],
		"rotation":[0.7071067690849304,
		0.0,
		0.0,
		-0.7071067690849304],
		"scale":[100.0,
		100.0,
		100.0],
		"mesh":1
	}],
	"bufferViews":[{
		"buffer":0,
		"byteOffset":0,
		"byteLength":20856,
		"target":34963
	},
	{
		"byteStride":32,
		"buffer":0,
		"byteOffset":20856,
		"byteLength":100544,
		"target":34962
	},
	{
		"buffer":1,
		"byteOffset":0,
		"byteLength":203556,
		"target":34963
	},
	{
		"byteStride":32,
		"buffer":1,
		"byteOffset":203556,
		"byteLength":572768,
		"target":34962
	}],
	"meshes":[{
		"name":"Icons",
		"primitives":[{
			"attributes":{
				"TEXCOORD_0":3,
				"POSITION":1,
				"NORMAL":2
			},
			"indices":0
		}]
	},
	{
		"name":"English",
		"primitives":[{
			"attributes":{
				"TEXCOORD_0":7,
				"POSITION":5,
				"NORMAL":6
			},
			"indices":4,
			"material":0
		}]
	}],
	"accessors":[{
		"bufferView":0,
		"type":"SCALAR",
		"componentType":5123,
		"count":10428,
		"byteOffset":0,
		"min":[0],
		"max":[3141]
	},
	{
		"bufferView":1,
		"type":"VEC3",
		"componentType":5126,
		"count":3142,
		"byteOffset":0,
		"min":[-93.67704772949219,
		-32.18547821044922,
		-54.71055221557617],
		"max":[73.73580169677735,
		31.780014038085939,
		44.2015266418457]
	},
	{
		"bufferView":1,
		"type":"VEC3",
		"componentType":5126,
		"count":3142,
		"byteOffset":12,
		"min":[-0.9971332550048828,
		-1.0,
		-0.9972583651542664],
		"max":[0.9993985295295715,
		1.0,
		0.9920196533203125]
	},
	{
		"bufferView":1,
		"type":"VEC2",
		"componentType":5126,
		"count":3142,
		"byteOffset":24,
		"min":[0.0,
		0.0],
		"max":[1.0,
		1.0]
	},
	{
		"bufferView":2,
		"type":"SCALAR",
		"componentType":5123,
		"count":101778,
		"byteOffset":0,
		"min":[0],
		"max":[17898]
	},
	{
		"bufferView":3,
		"type":"VEC3",
		"componentType":5126,
		"count":17899,
		"byteOffset":0,
		"min":[-0.9143943786621094,
		-1.3153079748153687,
		-1.509352445602417],
		"max":[0.9143943786621094,
		0.9088181257247925,
		1.4007468223571778]
	},
	{
		"bufferView":3,
		"type":"VEC3",
		"componentType":5126,
		"count":17899,
		"byteOffset":12,
		"min":[-0.999993085861206,
		-0.9999996423721314,
		-0.9967877864837647],
		"max":[0.999993085861206,
		0.9999539256095886,
		0.9999317526817322]
	},
	{
		"bufferView":3,
		"type":"VEC2",
		"componentType":5126,
		"count":17899,
		"byteOffset":24,
		"min":[0.0,
		0.0],
		"max":[0.9765474796295166,
		0.7363587617874146]
	}],
	"buffers":[{
		"uri":"data:application/octet-stream;base64,",
		"byteLength":121400
	},
	{
		"uri":"data:application/octet-stream;base64,",
		"byteLength":776324
	}],
	"textures":[{
		"sampler":0,
		"source":0
	}],
	"samplers":[{
		"magFilter":9729,
		"minFilter":9729,
		"wrapS":10497,
		"wrapT":10497
	}],
	"materials":[{
		"pbrMetallicRoughness":{
			"baseColorTexture":{
				"index":0
			},
			"baseColorFactor":[0.8,
			0.8,
			0.8,
			1.0],
			"metallicFactor":0.0,
			"roughnessFactor":0.5
		},
		"emissiveFactor":[0.0,
		0.0,
		0.0],
		"alphaMode":"OPAQUE",
		"doubleSided":false,
		"name":"Mat"
	}]
}